# xmcd
#
# Track frame offsets:
#	150
#	12562
#	25655
#	38147
#	55917
#	72715
#	85450
#	99685
#
# Disc length: 1500 seconds
#
# Revision: 0
# Processed by: cddbd v1.4PL0 Copyright (c) Steve Scherf et al.
# Submitted via: dBpowerAMP V4.0
#
DISCID=6b05da08
DTITLE=Merle Haggard - Okie From Muskogee
DYEAR=1900
DGENRE=Country
TTITLE0=Okie From Muskogee
TTITLE1=Swinging Doors
TTITLE2=The Bottle Let Me Down
TTITLE3=I Think I'll Just Stay Here And Drink
TTITLE4=Daddy Frank (The Guitar Man)
TTITLE5=It's Been A Great Afternoon
TTITLE6=Always Wanting You
TTITLE7=Sing Me Back Home Again
EXTD=
EXTT0=
EXTT1=
EXTT2=
EXTT3=
EXTT4=
EXTT5=
EXTT6=
EXTT7=
PLAYORDER=
